<svg id="Layer_1" data-name="Layer 1" xmlns="http://www.w3.org/2000/svg" viewBox="0 0 414 54"><defs><style>.cls-1{fill:#fff;}.cls-2{fill:none;stroke:#000;stroke-miterlimit:10;}</style></defs><rect class="cls-1" x="0.5" y="0.5" width="413" height="53" rx="11.5"/><path d="M402,1a11,11,0,0,1,11,11V42a11,11,0,0,1-11,11H12A11,11,0,0,1,1,42V12A11,11,0,0,1,12,1H402m0-1H12A12,12,0,0,0,0,12V42A12,12,0,0,0,12,54H402a12,12,0,0,0,12-12V12A12,12,0,0,0,402,0Z"/><line class="cls-2" x1="0.5" y1="19.5" x2="117" y2="19.5"/><line class="cls-2" x1="103.5" y1="7.35" x2="103.5" y2="36.15"/><line class="cls-2" x1="116.5" y1="19.5" x2="215.5" y2="19.5"/><line class="cls-2" x1="207" y1="7.6" x2="207" y2="36.4"/><line class="cls-2" x1="215.5" y1="19.5" x2="314.5" y2="19.5"/><line class="cls-2" x1="310.5" y1="7.6" x2="310.5" y2="36.4"/><line class="cls-2" x1="314" y1="19.5" x2="413" y2="19.5"/><line class="cls-2" x1="0.5" y1="36.5" x2="412.81" y2="36"/></svg>